<svg width="24" height="24" viewBox="0 0 24 24" fill="none" xmlns="http://www.w3.org/2000/svg">
  <path d="M9 2H15" stroke="#94A3B8" stroke-width="2" stroke-linecap="round"/>
  <path d="M8 3H16M16 3H19C19.5523 3 20 3.44772 20 4V20C20 20.5523 19.5523 21 19 21H5C4.44772 21 4 20.5523 4 20V4C4 3.44772 4.44772 3 5 3H8M8 3V5H16V3" stroke="#94A3B8" stroke-width="2" stroke-linecap="round" stroke-linejoin="round"/>
  <rect x="7" y="9" width="10" height="2" fill="#38BDF8" fill-opacity="0.5"/>
  <rect x="7" y="13" width="7" height="2" fill="#38BDF8" fill-opacity="0.5"/>
  <!-- Warning Mark -->
  <path d="M16 16L18 18" stroke="#EF4444" stroke-width="2" stroke-linecap="round"/>
  <path d="M16 18L18 16" stroke="#EF4444" stroke-width="2" stroke-linecap="round"/>
</svg>
